<svg viewBox="0 0 100 100" xmlns="http://www.w3.org/2000/svg"><path d="M91.918 45.582l-37.5-37.5a6.238 6.238 0 0 0-8.836 0 6.238 6.238 0 0 0 0 8.836L78.664 50 45.582 83.082a6.238 6.238 0 0 0 0 8.836C46.801 93.137 48.4 93.75 50 93.75s3.2-.613 4.418-1.832l37.5-37.5a6.238 6.238 0 0 0 0-8.836z"/><path d="M54.418 45.582l-37.5-37.5a6.238 6.238 0 0 0-8.836 0 6.238 6.238 0 0 0 0 8.836L41.164 50 8.082 83.082a6.238 6.238 0 0 0 0 8.836c1.219 1.219 2.816 1.832 4.418 1.832s3.2-.613 4.418-1.832l37.5-37.5a6.238 6.238 0 0 0 0-8.836z"/></svg>