<svg xmlns="http://www.w3.org/2000/svg" viewBox="0 0 54 58"><path fill-rule="evenodd" d="M54 11.834a6.234 6.234 0 0 0-6.167-6.284 3.615 3.615 0 0 0-3.543-3.082 3.51 3.51 0 0 0-.532.041A3.558 3.558 0 0 0 40.599.587a3.512 3.512 0 0 0-1.609.39 4.814 4.814 0 0 0-6.806 1.013A6.076 6.076 0 0 0 28.521.762a6.214 6.214 0 0 0-6.04 5.027 4.306 4.306 0 0 0-3.5 1.689 6.041 6.041 0 0 0-3.241-.938 6.13 6.13 0 0 0-5.07 2.705 4.211 4.211 0 0 0-1.8-.4 4.322 4.322 0 0 0-4.275 4.357 4.4 4.4 0 0 0 .055.7 6.971 6.971 0 0 0-2.992 11.08A6.778 6.778 0 0 0 4.612 27a3.78 3.78 0 0 0-.021.4 3.668 3.668 0 0 0 3.629 3.7 3.577 3.577 0 0 0 2.679-1.2 4.581 4.581 0 0 0 4.546-.05 6.127 6.127 0 0 0 4.72 2.241 6.041 6.041 0 0 0 2.457-.526c3.028 2.295 4.6 3.444 5.466 4.015a9.145 9.145 0 0 1-.408 1.1 8.923 8.923 0 0 1-3.777 4.173 11.318 11.318 0 0 0-4.6 14.541l.218.474h-6.507a1.066 1.066 0 0 0 0 2.132h27.315a1.066 1.066 0 0 0 0-2.132h-9.258a11.061 11.061 0 0 1 .464-13.387 13.215 13.215 0 0 0 2.983-8.369c0-.133 0-.266-.007-.4l4.575-3.388a5.43 5.43 0 0 0 4.616-3.377h.194a5.441 5.441 0 0 0 5.382-5.4 4.371 4.371 0 0 0 3.1-4.226 4.469 4.469 0 0 0-.136-1.1A6.307 6.307 0 0 0 54 11.834zM24.465 30.3a6.262 6.262 0 0 0 1.227-1.714 1.329 1.329 0 0 1 2.1.165l.483 2.284a9.3 9.3 0 0 1 .2 2.224 213.073 213.073 0 0 1-4.01-2.959zm5.466 10.813a13.234 13.234 0 0 0-1.344 14.755h-6.753l-.639-1.382a9.161 9.161 0 0 1 3.723-11.769 11.032 11.032 0 0 0 4.667-5.156 11.307 11.307 0 0 0 .734-6.975l-.381-1.8a3.5 3.5 0 0 0 .407-.149 3.675 3.675 0 0 0 .479-.258 11.067 11.067 0 0 1-.893 12.734zm2.961-13.357a4.805 4.805 0 0 0 1.166-.172 5.4 5.4 0 0 0 2.244 2.168l-2.085 1.544a13.093 13.093 0 0 0-1.325-3.54zM50.37 15.081a1.081 1.081 0 0 0-.295 1.286 2.279 2.279 0 0 1 .209.96 2.241 2.241 0 0 1-2.156 2.269 1.04 1.04 0 0 0-.781.395 1.079 1.079 0 0 0-.215.862 3.561 3.561 0 0 1 .055.612 3.327 3.327 0 0 1-3.291 3.356 3.254 3.254 0 0 1-.7-.078 1.027 1.027 0 0 0-.789.145 1.064 1.064 0 0 0-.456.672 3.321 3.321 0 0 1-3.218 2.647 3.271 3.271 0 0 1-2.812-1.611 4.988 4.988 0 0 0 1.609-2.649 6.04 6.04 0 0 0 3.84-.352 1.074 1.074 0 0 0 .545-1.4 1.038 1.038 0 0 0-1.375-.556 4 4 0 0 1-3.46-.111 1.033 1.033 0 0 0-1.056.065 1.074 1.074 0 0 0-.46.97 2.847 2.847 0 0 1-1.674 2.833 2.711 2.711 0 0 1-2.232-.011 1.04 1.04 0 0 0-1.374.53 1.506 1.506 0 0 1-.763.765 1.472 1.472 0 0 1-1.852-.582 1.035 1.035 0 0 0-1.7-.1 1.49 1.49 0 0 1-2.635-.7 1.061 1.061 0 0 0-.632-.8 1.027 1.027 0 0 0-1 .117 4.112 4.112 0 0 1-.752.432 3.977 3.977 0 0 1-3.118.048 4.09 4.09 0 0 1-2.238-2.214 1.038 1.038 0 0 0-1.374-.556 1.073 1.073 0 0 0-.546 1.4 6.183 6.183 0 0 0 3.386 3.35 6.018 6.018 0 0 0 4.719-.072 3.576 3.576 0 0 0 1.58 1.382 4.031 4.031 0 0 1-6.757-.576 1.045 1.045 0 0 0-.771-.539 1.034 1.034 0 0 0-.886.305 2.516 2.516 0 0 1-3.591.033 1.033 1.033 0 0 0-.947-.278 1.05 1.05 0 0 0-.753.648 1.531 1.531 0 0 1-1.428.989 1.555 1.555 0 0 1-1.538-1.568 1.585 1.585 0 0 1 .162-.7 1.08 1.08 0 0 0-.008-.966 1.044 1.044 0 0 0-.77-.562 4.792 4.792 0 0 1 .055-9.453 1.048 1.048 0 0 0 .781-.56 1.083 1.083 0 0 0 .009-.972 2.238 2.238 0 0 1-.229-.992 2.208 2.208 0 0 1 2.184-2.226 2.158 2.158 0 0 1 1.465.576 1.031 1.031 0 0 0 .924.251 1.051 1.051 0 0 0 .738-.619 4.071 4.071 0 0 1 3.742-2.509 4.012 4.012 0 0 1 2.83 1.168 1.032 1.032 0 0 0 .966.272 1.052 1.052 0 0 0 .747-.681 2.237 2.237 0 0 1 2.1-1.511 2.173 2.173 0 0 1 .693.113 1.031 1.031 0 0 0 .939-.148 1.073 1.073 0 0 0 .435-.859 4.123 4.123 0 0 1 4.073-4.132 4.035 4.035 0 0 1 3.135 1.5 1.039 1.039 0 0 0 .994.367 1.053 1.053 0 0 0 .8-.7 2.791 2.791 0 0 1 2.638-1.925 2.736 2.736 0 0 1 2.046.912 1.033 1.033 0 0 0 1.468.068 1.468 1.468 0 0 1 1-.393A1.5 1.5 0 0 1 42.071 4a1.063 1.063 0 0 0 .565.786 1.026 1.026 0 0 0 .956-.011 1.454 1.454 0 0 1 .7-.176 1.511 1.511 0 0 1 1.5 1.525 1.575 1.575 0 0 1-.044.362 1.078 1.078 0 0 0 .271.992 1.033 1.033 0 0 0 .968.3 3.936 3.936 0 0 1 .855-.093 4.167 4.167 0 0 1 2.528 7.396zm-8.419-1.847c-.106.047-.212.1-.316.148a4.48 4.48 0 0 0-6.627-1.587 4.443 4.443 0 0 0-4.823-.8 4.533 4.533 0 0 0-1.825 1.467 6.215 6.215 0 0 0-4.172.295 6.44 6.44 0 0 0-3.786 6.409 1.054 1.054 0 0 0 1.041.982h.084a1.06 1.06 0 0 0 .96-1.147 4.3 4.3 0 0 1 2.531-4.284 4.1 4.1 0 0 1 3.375.016 1.037 1.037 0 0 0 1.373-.53 2.462 2.462 0 0 1 1.248-1.248 2.4 2.4 0 0 1 3.024.95 1.035 1.035 0 0 0 1.7.1 2.419 2.419 0 0 1 4.142.575 2.488 2.488 0 0 1 .162.566 1.063 1.063 0 0 0 .632.8 1.03 1.03 0 0 0 1-.117 6.064 6.064 0 0 1 1.1-.635 1.073 1.073 0 0 0 .546-1.4 1.039 1.039 0 0 0-1.369-.56z"/></svg>