<svg viewBox="0 0 36 36" xmlns="http://www.w3.org/2000/svg"><path d="M18 .011c.433 0 .825.4.818.831v1.624h16.364c.434.006.818.409.818.818v2.454c0 .429-.39.819-.818.819h-1.227v19.227c0 .666-.561 1.227-1.228 1.227H18.818v1.317l5.101 5.484c.291.315.277.86-.038 1.15-.315.292-.873.277-1.164-.038l-3.899-4.193v2.826c.007.431-.385.83-.818.83-.433 0-.824-.397-.818-.83V30.73l-3.9 4.193c-.29.315-.848.33-1.163.039-.314-.291-.329-.836-.038-1.15l5.101-5.485V27.01H3.272c-.665 0-1.226-.56-1.226-1.227V6.557H.818C.39 6.557 0 6.167 0 5.738V3.284c0-.428.39-.818.818-.818h16.364V.842c-.006-.431.385-.83.818-.83zm16.364 4.091H1.636v.818h32.728v-.818zm-2.046 2.455H3.682v18.818h28.636V6.557zM8.795 8.589c.106 0 .202.048.282.128.16.16.16.416 0 .575L5.612 12.77a.42.42 0 0 1-.588 0 .42.42 0 0 1 0-.588l3.477-3.465a.426.426 0 0 1 .294-.128zm1.726 1.164c.106 0 .214.035.294.115a.42.42 0 0 1 0 .588l-4.052 4.04a.405.405 0 0 1-.575 0 .405.405 0 0 1 0-.576l4.052-4.052a.384.384 0 0 1 .281-.115z" fill-rule="nonzero"/></svg>