<svg viewBox="0 0 27 36" xmlns="http://www.w3.org/2000/svg"><g fill-rule="evenodd"><path d="M25.372.048H1.436C.775.048.24.583.24 1.245v33.51c0 .662.536 1.197 1.197 1.197h23.936c.662 0 1.197-.535 1.197-1.197V1.245c0-.662-.535-1.197-1.197-1.197zm-1.196 33.51H2.633V2.442h21.543V33.56z" fill-rule="nonzero"/><path d="M5.027 14.41h16.755c.661 0 1.197-.536 1.197-1.197V6.032c0-.661-.536-1.197-1.197-1.197H5.027c-.662 0-1.197.536-1.197 1.197v7.18c0 .662.535 1.198 1.197 1.198zm1.196-7.181h14.362v4.787H6.223V7.229z" fill-rule="nonzero"/><path d="M20.585 26.378h-1.197V25.18a1.196 1.196 0 1 0-2.393 0v1.197h-1.197a1.196 1.196 0 1 0 0 2.393h1.197v1.197a1.196 1.196 0 1 0 2.393 0v-1.197h1.197a1.196 1.196 0 1 0 0-2.393zM4.881 22.437c.234.234.54.35.847.35.307 0 .614-.116.847-.35l.845-.847.847.847a1.194 1.194 0 0 0 1.692 0 1.195 1.195 0 0 0 0-1.692l-.847-.847.847-.846a1.195 1.195 0 0 0 0-1.692 1.195 1.195 0 0 0-1.692 0l-.847.846-.847-.846a1.195 1.195 0 0 0-1.692 0 1.195 1.195 0 0 0 0 1.692l.847.846-.847.847a1.195 1.195 0 0 0 0 1.692zM21.086 17.028L4.331 28.996a1.196 1.196 0 1 0 1.391 1.945l16.756-11.969a1.196 1.196 0 1 0-1.392-1.944z"/></g></svg>