<svg xmlns="http://www.w3.org/2000/svg" viewBox="0 0 181.95 33.69"><path fill="#3a495b" d="M10.15 11.88c-2.7 0-4.61 2.09-4.61 5.18s1.91 5.26 4.61 5.26a5 5 0 0 0 4.5-2.32l3.82 2.59c-1.62 2.7-4.64 4.28-8.6 4.28C4 26.92 0 23 0 17.1s4-9.94 9.93-9.94c3.71 0 6.66 1.48 8.39 4.07l-3.74 2.7a5.34 5.34 0 0 0-4.43-2.05zm22.5 14.83v-2.27A7.45 7.45 0 0 1 26.57 27c-4.14 0-6.66-2.52-6.66-6s2.63-5.79 7.38-5.83h5.33v-.36c0-2.05-1.37-3.24-4-3.24a12.26 12.26 0 0 0-5.76 1.69l-1.76-3.9a18.16 18.16 0 0 1 8.75-2.23C35 7.13 38 9.72 38 14.07V26.7zm0-6.62v-1.73h-4.39c-2.12 0-3.17.65-3.17 2.2s1.15 2.45 3 2.45c2.37-.01 4.2-1.27 4.52-2.92zM54.83 7.13v5.22c-4-.36-6.41 1.76-6.41 5v9.32h-5.54V7.34h5.54v3.49a7 7 0 0 1 6.41-3.7zM63.57 0v26.71H58V0zm11.85 11.16c-1.3 0-2.23.43-2.23 1.44 0 2.92 10.22 1.44 10.19 8.28 0 4-3.49 6-7.88 6a13.52 13.52 0 0 1-8.39-2.7l1.8-3.74a11.67 11.67 0 0 0 6.73 2.41c1.4 0 2.45-.47 2.45-1.51 0-3.1-10-1.44-10-8.24 0-4 3.42-6 7.63-6a14.44 14.44 0 0 1 7.56 2.16L81.32 13a13.1 13.1 0 0 0-5.9-1.84z"/><path fill="#146ac0" d="M108 17.13c0 5.87-3.56 9.79-9 9.79a7.33 7.33 0 0 1-6.23-3v9.79h-5.51V7.34h5.54v2.84a7.18 7.18 0 0 1 6.12-3c5.44-.02 9.08 3.98 9.08 9.95zm-5.58-.13c0-3.1-1.94-5.33-4.79-5.33s-4.82 2.2-4.82 5.33 2 5.36 4.82 5.36 4.79-2.24 4.79-5.36zm15.01-17v26.71h-5.54V0zm16.77 26.71v-2.27a7.45 7.45 0 0 1-6.08 2.56c-4.14 0-6.66-2.52-6.66-6s2.63-5.79 7.38-5.83h5.33v-.36c0-2.05-1.37-3.24-4-3.24a12.26 12.26 0 0 0-5.76 1.69l-1.73-3.82a18.16 18.16 0 0 1 8.75-2.23c5.18 0 8.17 2.59 8.21 6.95v12.63zm0-6.62v-1.73h-4.36c-2.12 0-3.17.65-3.17 2.2s1.15 2.45 3 2.45c2.33-.01 4.17-1.27 4.5-2.92zm18.72-8.21c-2.7 0-4.61 2.09-4.61 5.18s1.91 5.26 4.61 5.26a5 5 0 0 0 4.5-2.27l3.82 2.59c-1.62 2.7-4.64 4.28-8.6 4.28-5.87 0-9.86-4-9.86-9.83s4-9.93 9.93-9.93c3.71 0 6.66 1.48 8.39 4.07l-3.74 2.7a5.34 5.34 0 0 0-4.44-2.05zm28.98 6.84H168a5 5 0 0 0 5 3.89 6.87 6.87 0 0 0 4.9-2.05l2.92 3a10.8 10.8 0 0 1-8.28 3.42c-6.19 0-10.12-4-10.12-9.83s4.07-9.93 10-9.93c6.78-.06 9.95 4.44 9.48 11.5zm-5.18-3.28a4 4 0 0 0-4.28-4.21c-2.45 0-4.1 1.66-4.54 4.21z"/></svg>