<svg xmlns="http://www.w3.org/2000/svg" viewBox="0 0 50 50"><path fill-rule="evenodd" d="M36.29 33.871a2.42 2.42 0 1 0 2.42 2.419 2.425 2.425 0 0 0-2.42-2.419zm0 3.226a.807.807 0 1 1 .81-.807.814.814 0 0 1-.81.81zm0-8.871a2.419 2.419 0 1 0 2.42 2.419 2.425 2.425 0 0 0-2.42-2.419zm0 3.225a.806.806 0 1 1 .81-.806.813.813 0 0 1-.81.806zm-3.68-.078a2.417 2.417 0 1 0 .89 3.3 2.416 2.416 0 0 0-.89-3.3zm-.51 2.5a.808.808 0 1 1-.7-1.21.833.833 0 0 1 .41.108.813.813 0 0 1 .29 1.1zm-1.91 3.147a2.421 2.421 0 0 0 1.22 4.514 2.388 2.388 0 0 0 1.2-.323 2.42 2.42 0 1 0-2.42-4.193zm1.61 2.793a.806.806 0 1 1-.8-1.4.77.77 0 0 1 .4-.108.805.805 0 0 1 .4 1.506zm4.49-.3a2.42 2.42 0 1 0 2.42 2.419 2.425 2.425 0 0 0-2.42-2.416zm0 3.226a.807.807 0 1 1 .81-.807.814.814 0 0 1-.81.81zm6.1-5.724a2.42 2.42 0 1 0-2.42 4.19 2.4 2.4 0 0 0 1.21.323 2.417 2.417 0 0 0 1.21-4.51zm-.51 2.5a.808.808 0 1 1-.7-1.21.8.8 0 0 1 .4.108.807.807 0 0 1 .3 1.103zm-1.91-8.143a2.42 2.42 0 1 0 3.31.886 2.424 2.424 0 0 0-3.31-.885zm1.61 2.793a.806.806 0 1 1-.8-1.4.77.77 0 0 1 .4-.108.8.8 0 0 1 .4 1.509zm7.76-2.068a.073.073 0 0 1-.01-.045c-.01-.033-.03-.062-.04-.094a13.787 13.787 0 0 0-4.77-6.609c-.06-.05-.11-.106-.17-.152s-.1-.055-.15-.086a13.508 13.508 0 0 0-11.39-2.065l1.36-2.379-.96-.544L44.95 0h-7.51l-9.71 16.989-.58-.328-7.43 11.565H7.2a7.208 7.208 0 0 0-7.2 7.2A14.577 14.577 0 0 0 14.57 50a13.65 13.65 0 0 0 8.81-3.226h.01v-.007a13.822 13.822 0 0 0 2.04-2.143 13.9 13.9 0 0 0 2.63 2.606c.06.05.11.106.17.152s.12.073.18.109a13.627 13.627 0 0 0 15.76 0c.06-.035.12-.067.18-.109s.11-.1.17-.151a13.8 13.8 0 0 0 4.77-6.609c.01-.032.03-.061.04-.1a.073.073 0 0 1 .01-.044 13.643 13.643 0 0 0 0-8.378zm-1.57.416l.03.062a.811.811 0 0 1-.05.592.823.823 0 0 1-.47.4.806.806 0 1 1-.25-1.573.8.8 0 0 1 .74.52zm-5.5-5.832a.809.809 0 0 1 1.06-.212c.04.034.09.069.13.1a.8.8 0 0 1 .12 1.057.809.809 0 0 1-1.31-.944zm-5.98-2.488a.806.806 0 1 1-.81.806.813.813 0 0 1 .81-.805zm2.08-22.581h3.77l-10.33 17.71-2.68-1.534zM5.65 44.805c-.08-.074-.17-.139-.24-.215a13 13 0 0 1-2.69-3.938l2.93.8v3.355zm8.06 3.538a12.914 12.914 0 0 1-2.42-.39v-1.986H9.68v1.462a12.749 12.749 0 0 1-2.42-1.309v-4.247c.8.2 1.6.367 2.42.5v1.983h1.61v-1.772c.8.081 1.61.134 2.42.145v5.616zm4.03-.386a11.9 11.9 0 0 1-2.42.405V42.7c.81-.036 1.62-.094 2.42-.2v5.456zm4.03-1.968a11.922 11.922 0 0 1-2.42 1.4v-5.156c.71-.135 1.41-.289 2.1-.478l.32-.087v4.318zm1.52-14.031c-.01.033-.03.062-.04.1a.076.076 0 0 1-.01.045 13.82 13.82 0 0 0-.66 4.191 13.391 13.391 0 0 0 .44 3.37l-1.99.542a26.4 26.4 0 0 1-13.83 0l-5.13-1.4a13.122 13.122 0 0 1-.46-3.379A5.6 5.6 0 0 1 7.2 29.84h13.4l7.08-11.017 4.28 2.446-1.44 2.525.07.042a13.519 13.519 0 0 0-2.21 1.278c-.05.03-.1.051-.15.086s-.11.1-.17.152a13.789 13.789 0 0 0-4.77 6.607zm6.84-4.151a.813.813 0 0 1-1.13-.179.8.8 0 0 1 .12-1.058c.04-.033.09-.069.13-.1a.8.8 0 0 1 .88 1.338zm-4.58 4.186a.762.762 0 0 1 .25.04.807.807 0 1 1-.5 1.534.825.825 0 0 1-.47-.4.812.812 0 0 1-.05-.593l.03-.061a.8.8 0 0 1 .74-.519zm-2.16 12.548v-3.31l.11-.032a14.212 14.212 0 0 0 .97 2 12 12 0 0 1-1.08 1.343zm1.41-4.486a.113.113 0 0 0-.02-.051.81.81 0 0 1 .05-.592.825.825 0 0 1 .47-.4.855.855 0 0 1 .25-.04.806.806 0 1 1-.75 1.084zm5.51 5.842a.809.809 0 0 1-1.06.213c-.04-.034-.09-.069-.13-.1a.8.8 0 0 1-.12-1.057.821.821 0 0 1 .66-.333.8.8 0 0 1 .47.154.808.808 0 0 1 .18 1.126zm5.98 2.489a.807.807 0 1 1 .81-.806.813.813 0 0 1-.81.807zm7.17-2.378c-.04.034-.09.07-.13.1a.801.801 0 0 1-.88-1.339.825.825 0 0 1 .48-.154.795.795 0 0 1 .53 1.394zm4.34-6a.109.109 0 0 0-.02.051.8.8 0 1 1-.5-1.044.825.825 0 0 1 .47.4.809.809 0 0 1 .05.591zm.49-2.28a2.263 2.263 0 0 0-.52-.247 2.419 2.419 0 1 0-.93 4.707 12.141 12.141 0 0 1-1.69 2.309 2.085 2.085 0 0 0-.27-.492 2.418 2.418 0 1 0-3.91 2.845 2.308 2.308 0 0 0 .38.414 11.728 11.728 0 0 1-2.72.894 2.2 2.2 0 0 0 .08-.575 2.42 2.42 0 0 0-4.84 0 2.185 2.185 0 0 0 .08.574 11.84 11.84 0 0 1-2.72-.895 2.243 2.243 0 0 0 .38-.414A2.419 2.419 0 1 0 27.7 44a2.085 2.085 0 0 0-.27.492 12.11 12.11 0 0 1-1.69-2.309 2.31 2.31 0 0 0 .56-.106 2.419 2.419 0 0 0-1.49-4.6 2.349 2.349 0 0 0-.52.247 10.346 10.346 0 0 1 0-2.87 2.22 2.22 0 0 0 .52.246 2.328 2.328 0 0 0 .75.12 2.418 2.418 0 0 0 2.29-1.674 2.413 2.413 0 0 0-1.55-3.049 2.356 2.356 0 0 0-.56-.1 12.054 12.054 0 0 1 1.69-2.31 2.085 2.085 0 0 0 .27.492 2.418 2.418 0 1 0 3.91-2.845 2.314 2.314 0 0 0-.39-.412 11.922 11.922 0 0 1 2.73-.9 2.22 2.22 0 0 0-.08.577 2.42 2.42 0 0 0 4.84 0 2.18 2.18 0 0 0-.08-.574 11.922 11.922 0 0 1 2.73.9 2.314 2.314 0 0 0-.39.412 2.417 2.417 0 1 0 3.91 2.842 2.06 2.06 0 0 0 .27-.491 12.078 12.078 0 0 1 1.69 2.309 2.455 2.455 0 0 0-.56.105 2.413 2.413 0 0 0-1.55 3.049 2.422 2.422 0 0 0 2.29 1.674 2.356 2.356 0 0 0 .75-.12 2.263 2.263 0 0 0 .52-.247 10.353 10.353 0 0 1 0 2.868z"/></svg>