<svg xmlns="http://www.w3.org/2000/svg" viewBox="0 0 64 44"><path fill-rule="evenodd" d="M26.667 9.659a1.073 1.073 0 1 1-1.067 1.073 1.069 1.069 0 0 1 1.067-1.073zm2.133 3.219a1.073 1.073 0 1 1-1.067 1.073 1.071 1.071 0 0 1 1.067-1.073zm4.267 0A1.073 1.073 0 1 1 32 13.951a1.07 1.07 0 0 1 1.067-1.073zm-2.134-3.219a1.073 1.073 0 1 1-1.066 1.073 1.07 1.07 0 0 1 1.066-1.073zm4.267 0a1.073 1.073 0 1 1-1.067 1.073A1.07 1.07 0 0 1 35.2 9.659zM61.393 12a1.044 1.044 0 0 0-.159-.1L54.4 8.844V3.151A3.143 3.143 0 0 0 51.27 0H12.73A3.143 3.143 0 0 0 9.6 3.149v5.693l-6.833 3.055a.908.908 0 0 0-.144.1A3.746 3.746 0 0 0 0 15.561v11.56a11.5 11.5 0 0 0 10.443 11.462l-.822 4.132a1.078 1.078 0 0 0 .221.891 1.061 1.061 0 0 0 .825.394H12.8a1.062 1.062 0 0 0 .754-.314l5.021-5.052h28.983l5.021 5.052a1.065 1.065 0 0 0 .754.314h2.134a1.06 1.06 0 0 0 .824-.393 1.073 1.073 0 0 0 .221-.89l-.9-4.513A11.513 11.513 0 0 0 64 27.121v-11.56A3.746 3.746 0 0 0 61.393 12zm-49.95 19.123a3.992 3.992 0 0 1-3.976-4v-.144c.166-.171.328-.347.508-.5a.32.32 0 0 0 .027-.025 7.41 7.41 0 0 1 .818-.594l.158-.1a7.455 7.455 0 0 1 1.938-.822l.044-.011a7.822 7.822 0 0 1 .86-.17c.029 0 .057-.01.086-.013a6.818 6.818 0 0 1 .894-.061h15.733a2.41 2.41 0 0 1 2.4 2.415v4.024h-19.49zm21.624-4.024a2.41 2.41 0 0 1 2.4-2.415H51.2a6.992 6.992 0 0 1 .894.06c.03 0 .059.01.087.014a7.788 7.788 0 0 1 .858.17l.046.011a7.491 7.491 0 0 1 1.932.819l.167.1a7.43 7.43 0 0 1 .81.588l.043.041c.175.15.334.321.5.487v.145a3.992 3.992 0 0 1-3.976 4H33.067V27.1zM54.4 11.19l3.425 1.531c-.031.027-.054.063-.084.09a3.9 3.9 0 0 0-.3.327c-.067.078-.136.154-.195.238a3.622 3.622 0 0 0-.241.4c-.046.085-.1.166-.138.255a3.721 3.721 0 0 0-.171.5c-.022.077-.053.15-.07.23a3.662 3.662 0 0 0-.09.8v8.613c-.059-.04-.127-.071-.187-.109a11.453 11.453 0 0 0-.677-.4c-.092-.05-.184-.1-.279-.146a9.551 9.551 0 0 0-.909-.389c-.028-.009-.053-.024-.081-.034V11.19zM11.733 3.149a1 1 0 0 1 1-1h38.54a1 1 0 0 1 1 1V22.6a9.474 9.474 0 0 0-1.067-.062H35.467a4.453 4.453 0 0 0-.965.109c-.1.023-.2.063-.3.093a4.584 4.584 0 0 0-.594.208c-.111.051-.212.115-.318.174a4.463 4.463 0 0 0-.482.3c-.1.075-.2.159-.292.241a5.205 5.205 0 0 0-.393.379c-.04.044-.089.077-.127.122-.037-.045-.088-.078-.127-.122a4.408 4.408 0 0 0-.394-.379c-.1-.083-.188-.166-.291-.241a4.563 4.563 0 0 0-.482-.3c-.106-.059-.207-.123-.318-.174a4.584 4.584 0 0 0-.594-.208c-.1-.03-.2-.07-.3-.093a4.436 4.436 0 0 0-.964-.109H12.8a9.474 9.474 0 0 0-1.067.062V3.15zM9.6 11.19V23.1l-.061.026a9.557 9.557 0 0 0-.932.4c-.092.045-.18.093-.27.14-.236.126-.466.26-.691.4-.058.038-.122.067-.179.105v-8.613a3.7 3.7 0 0 0-.088-.792c-.018-.086-.052-.163-.077-.247a3.805 3.805 0 0 0-.165-.486c-.042-.092-.095-.176-.143-.265a3.717 3.717 0 0 0-.236-.393c-.061-.087-.132-.164-.2-.245a3.571 3.571 0 0 0-.3-.318c-.031-.029-.054-.065-.086-.093zm2.758 30.664h-.39l.64-3.22h2.95zm41.167-3.22l.64 3.22h-.39l-3.2-3.22h2.95zm8.342-11.513a9.35 9.35 0 0 1-9.31 9.367H11.443a9.35 9.35 0 0 1-9.31-9.367v-11.56a1.6 1.6 0 1 1 3.2 0v11.56a6.135 6.135 0 0 0 6.11 6.147h41.114a6.135 6.135 0 0 0 6.11-6.147v-11.56a1.6 1.6 0 1 1 3.2 0v11.56z"/></svg>