<svg xmlns="http://www.w3.org/2000/svg" viewBox="0 0 60 52"><path fill-rule="evenodd" d="M59.18 0H.82A.82.82 0 0 0 0 .817v37.294a.821.821 0 0 0 .82.818h1.65v12.252a.82.82 0 0 0 .82.817h2.43a.812.812 0 0 0 .81-.817v-2.636l3.6 2.7a.814.814 0 0 0 .82.756h2.42a.82.82 0 0 0 .82-.817V38.93h31.43v12.252a.82.82 0 0 0 .82.817h2.43a.82.82 0 0 0 .82-.817v-2.636l3.59 2.7a.822.822 0 0 0 .82.757h2.43a.813.813 0 0 0 .81-.818V38.93h1.84a.821.821 0 0 0 .82-.818V.818A.82.82 0 0 0 59.18 0zm-2.65 37.294H1.64V1.636h56.72V37.3h-1.83zm-9.27 1.635h.79v11.434h-.79V38.93zm2.79 0h3.23v2.425zm-.36 1.775l3.05 2.285-3.05 2.286v-4.571zm3.59 3.92V49.2l-3.05-2.286zm2.43 5.739h-.79V38.93h.79v11.434zM4.11 38.929h.79v11.434h-.79V38.93zm2.78 0h3.24v2.425zm-.36 1.775l3.05 2.285-3.05 2.286v-4.571zm3.6 3.92V49.2l-3.05-2.286zm2.43 5.739h-.8V38.93h.8v11.434zm43.5-47.078H3.94a.821.821 0 0 0-.82.818v30.722a.821.821 0 0 0 .82.818h52.12a.821.821 0 0 0 .82-.818V4.1a.821.821 0 0 0-.82-.814zm-.82 1.636v29.087h-35.6l22.09-21.042a.818.818 0 1 0-1.13-1.184L17.26 34.008H8.47L39.01 4.921h8.8l-2.24 2.135a.816.816 0 0 0-.03 1.156.8.8 0 0 0 .59.253.836.836 0 0 0 .57-.225l3.48-3.319h5.06zM4.76 34.008V4.922h31.88L6.1 34.009H4.76z"/></svg>