<svg xmlns="http://www.w3.org/2000/svg" viewBox="0 0 50 50"><path d="M25.035 0C11.242 0 .06 11.181.06 24.973c0 10.581 6.58 19.619 15.871 23.254-.218-1.977-.414-5.006.086-7.164.456-1.953 2.929-12.41 2.929-12.41s-.748-1.5-.748-3.711c0-3.465 2.014-6.065 4.517-6.065 2.133 0 3.162 1.602 3.162 3.517 0 2.144-1.36 5.348-2.067 8.316-.593 2.486 1.25 4.51 3.698 4.51 4.434 0 7.85-4.676 7.85-11.43 0-5.96-4.298-10.144-10.433-10.144-7.104 0-11.269 5.337-11.269 10.831 0 2.152.821 4.465 1.852 5.71.207.25.234.47.177.72-.187.78-.61 2.497-.695 2.839-.11.469-.359.564-.836.344-3.114-1.438-5.069-5.996-5.069-9.68 0-7.866 5.725-15.108 16.5-15.108 8.663 0 15.4 6.181 15.4 14.423 0 8.615-5.43 15.546-12.985 15.546-2.53 0-4.904-1.31-5.746-2.873l-1.56 5.933c-.56 2.177-2.092 4.9-3.121 6.554A25.055 25.055 0 0 0 24.969 50c13.764 0 24.968-11.177 24.968-24.973C49.938 11.23 38.733.054 24.97.054L25.035 0z"/></svg>