<svg viewBox="0 0 50 50" xmlns="http://www.w3.org/2000/svg"><path d="M24.861.534c-.831.07-1.538.85-1.528 1.684v1.667H1.667C.775 3.885.004 4.707 0 5.55v3.333c0 .873.794 1.667 1.667 1.667h1.11v25.556c0 1.202 1.02 2.222 2.223 2.222h18.333v1.007l-6.77 7.292c-.654.625-.645 1.803.014 2.421.66.617 1.836.545 2.416-.147l4.34-4.688v2.448c-.013.881.786 1.69 1.667 1.69.88 0 1.68-.809 1.666-1.69v-2.448l4.34 4.688c.58.692 1.759.764 2.416.147.66-.616.666-1.796.015-2.421l-6.77-7.275V38.33h18.332c1.203 0 2.223-1.02 2.223-2.222V10.55h1.11c.873 0 1.667-.794 1.667-1.667V5.551c0-.872-.794-1.667-1.666-1.667H26.666V2.218c.013-.927-.88-1.762-1.805-1.684zM6.111 10.55H43.89v24.445H6.11V10.55zm30.833 2.743a.54.54 0 0 0-.382.174.55.55 0 0 0 0 .78l4.705 4.723a.571.571 0 0 0 .799 0 .571.571 0 0 0 0-.798l-4.722-4.705a.579.579 0 0 0-.4-.174zm-2.343 1.58a.56.56 0 0 0-.4.156.571.571 0 0 0 0 .799l5.504 5.486a.55.55 0 0 0 .781 0 .55.55 0 0 0 0-.781l-5.503-5.504a.521.521 0 0 0-.382-.156z"/></svg>