<svg viewBox="0 0 50 50" xmlns="http://www.w3.org/2000/svg" class="support-icon"><path d="M25 .013a24.94 24.94 0 0 0-17.68 7.32c-9.744 9.744-9.744 25.599 0 35.343 9.745 9.744 25.616 9.744 35.36 0 9.744-9.745 9.744-25.6 0-35.343A24.94 24.94 0 0 0 25 .013zm0 4.33a20.58 20.58 0 0 1 11.668 3.635L31.929 12.7A14.15 14.15 0 0 0 25 10.882c-2.397 0-4.787.614-6.93 1.818l-4.738-4.722A20.58 20.58 0 0 1 25 4.344zM7.965 13.346l4.722 4.738a14.221 14.221 0 0 0 0 13.859L7.965 36.68c-4.834-7.016-4.83-16.315 0-23.336zm34.07 0c4.83 7.02 4.834 16.319 0 23.336l-4.722-4.739a14.221 14.221 0 0 0 0-13.859l4.722-4.738zM25 15.213c2.499 0 4.993.951 6.913 2.87a9.759 9.759 0 0 1 0 13.842 9.738 9.738 0 0 1-13.826 0 9.759 9.759 0 0 1 0-13.842A9.732 9.732 0 0 1 25 15.213zm-6.93 22.113a14.221 14.221 0 0 0 13.86 0l4.738 4.721a20.61 20.61 0 0 1-23.336 0l4.739-4.721z"/></svg>